<svg version="1.1" id="Layer_1" xmlns="http://www.w3.org/2000/svg" xmlns:xlink="http://www.w3.org/1999/xlink" x="0px" y="0px"
	 width="100%" viewBox="0 0 1024 448" enable-background="new 0 0 1024 448" xml:space="preserve">
<path fill="#000000" opacity="1.000000" stroke="none" 
	d="
M741.093811,278.618530 
	C733.807251,250.406937 735.200989,222.947495 746.136230,196.456711 
	C764.792480,151.261459 798.555359,123.366913 846.607178,114.949898 
	C884.859375,108.249435 921.283508,114.580963 953.321655,138.345932 
	C963.283997,145.735779 966.167358,157.791840 961.095337,169.114502 
	C956.779785,178.748169 947.614441,183.124954 936.783203,180.929108 
	C929.150574,179.381714 922.439453,175.619217 915.533875,172.357315 
	C901.165466,165.570236 886.012756,161.297028 870.221680,161.607025 
	C837.359253,162.252167 811.620422,176.523804 795.885315,205.737045 
	C769.125000,255.419373 798.033752,316.384674 853.372375,327.229462 
	C877.228271,331.904510 899.991028,326.681976 921.656372,316.131805 
	C924.593994,314.701263 925.056030,312.443665 925.044006,309.588165 
	C924.985901,295.756714 924.996155,281.924835 925.026672,268.093231 
	C925.047668,258.570312 927.885803,250.403900 936.312012,244.943573 
	C950.549255,235.717590 973.608704,243.180771 973.883179,266.143921 
	C974.140015,287.619720 974.857422,309.122284 973.350769,330.593353 
	C972.891907,337.133240 969.985168,342.327545 964.867310,346.353088 
	C944.436523,362.423706 920.788086,370.993103 895.533508,375.316986 
	C850.437012,383.037933 810.634705,371.979034 777.203491,340.273834 
	C759.383667,323.373993 747.605835,302.729187 741.093811,278.618530 
z"/>
<path fill="#000000" opacity="1.000000" stroke="none" 
	d="
M52.454163,370.011475 
	C41.252216,365.798370 35.872669,357.525848 35.840221,346.419128 
	C35.643044,278.925781 35.676125,211.431519 35.784523,143.937790 
	C35.807518,129.621933 46.215366,119.082054 61.004036,119.041656 
	C89.822205,118.962921 118.736023,117.266830 147.439194,119.966103 
	C174.983521,122.556396 198.321808,133.511932 208.347168,161.844818 
	C216.675262,185.380997 210.763733,207.066269 196.934830,227.034500 
	C195.346207,229.328400 193.474182,231.426056 191.541626,233.856033 
	C198.187500,238.456635 204.571701,242.839279 209.877869,248.701004 
	C232.314713,273.486969 231.100037,309.803650 216.754242,335.025452 
	C212.008575,343.368988 204.266159,347.642578 194.655991,346.945160 
	C185.177795,346.257355 177.364929,342.186462 173.207047,332.952698 
	C170.644287,327.261353 171.654282,321.563782 173.213654,315.860321 
	C175.137894,308.822357 177.843414,302.007416 177.945816,294.501434 
	C178.059097,286.196136 174.839874,279.614319 168.707764,274.350647 
	C161.365494,268.048218 152.619904,264.751953 143.098221,264.377899 
	C129.785126,263.854919 116.443581,264.073914 103.114845,263.920044 
	C99.287506,263.875854 95.462181,263.645203 91.636253,263.492157 
	C86.186943,263.274170 85.156677,264.149445 85.149872,269.611023 
	C85.118904,294.441895 85.182968,319.272919 85.139954,344.103760 
	C85.115326,358.317535 78.220589,367.654968 65.634422,370.742554 
	C61.318256,371.801361 57.048130,371.528351 52.454163,370.011475 
M103.503464,162.312531 
	C99.008293,162.313751 94.511810,162.382111 90.018394,162.294006 
	C86.689621,162.228745 85.118301,163.664597 85.127197,167.044739 
	C85.169685,183.193466 85.169853,199.342407 85.144371,215.491196 
	C85.139420,218.631485 86.628235,220.055527 89.714203,220.029404 
	C106.025787,219.891312 122.362679,220.797516 138.643692,219.587326 
	C153.932251,218.450882 166.152405,206.337067 166.668350,192.575607 
	C167.236465,177.423157 156.899918,165.828674 140.384552,163.203659 
	C128.470001,161.309906 116.460258,162.741257 103.503464,162.312531 
z"/>
<path fill="#000000" opacity="1.000000" stroke="none" 
	d="
M614.890808,372.119720 
	C551.630371,390.251221 487.733643,362.921387 457.894958,304.607422 
	C446.293182,281.934021 441.784027,257.666229 444.445648,232.009964 
	C448.279999,195.050125 464.976318,165.364822 493.417847,141.943314 
	C504.572876,132.757141 519.114014,133.827225 528.325867,144.399948 
	C537.123657,154.497360 536.115173,169.609680 525.144287,178.748962 
	C509.480011,191.797989 498.640503,207.663315 494.390869,227.677826 
	C486.038696,267.014221 507.295441,307.150452 544.624695,322.502930 
	C593.555786,342.626923 649.875305,312.931488 659.285156,258.338623 
	C664.741821,226.681168 653.417725,200.445038 628.703674,179.978226 
	C615.331970,168.904526 615.378845,150.205872 628.755432,140.456528 
	C637.641052,133.980362 649.752197,133.984650 658.546143,141.023285 
	C686.719543,163.573120 704.064087,192.500305 708.324951,228.554703 
	C713.327332,270.884003 700.517151,307.547577 671.123474,338.182861 
	C655.630737,354.329987 636.702148,365.370209 614.890808,372.119720 
z"/>
<path fill="#000000" opacity="1.000000" stroke="none" 
	d="
M288.060760,127.095612 
	C302.223419,113.525635 323.546753,118.462875 329.494904,136.303238 
	C330.424744,139.092194 330.327362,141.884064 330.328247,144.698822 
	C330.346161,201.693085 330.340698,258.687347 330.345886,315.681610 
	C330.346527,322.596924 330.362457,322.602509 337.193604,322.617584 
	C343.859558,322.632324 350.526794,322.554169 357.191223,322.658264 
	C370.704193,322.869293 381.066620,333.612183 380.976807,347.208221 
	C380.892487,359.973938 370.386200,371.056824 357.566467,371.245544 
	C340.072083,371.503113 322.568878,371.481262 305.073608,371.257568 
	C292.466827,371.096375 281.765839,360.366119 281.747559,347.777496 
	C281.648346,279.451172 281.682312,211.124664 281.728882,142.798264 
	C281.732880,136.936508 283.784149,131.717758 288.060760,127.095612 
z"/>
<path fill="#000000" opacity="1.000000" stroke="none" 
	d="
M896.640320,281.600128 
	C888.879883,289.300964 880.111206,291.990417 869.980347,288.299438 
	C860.049255,284.681244 855.091980,277.057678 853.854797,266.831177 
	C852.359070,254.467148 863.544189,241.993225 876.980042,240.929352 
	C889.093689,239.970169 901.464233,250.439743 902.357117,262.263428 
	C902.891357,269.337799 901.759277,275.848572 896.640320,281.600128 
z"/>
<path fill="#000000" opacity="1.000000" stroke="none" 
	d="
M142.431915,368.764893 
	C129.507355,374.796722 117.930847,368.925476 112.472191,361.825714 
	C106.023026,353.437653 105.652611,341.786346 111.834267,332.915039 
	C117.659775,324.554871 125.921890,321.300812 135.757507,322.882812 
	C145.487000,324.447723 152.000381,330.426483 154.823898,339.835388 
	C157.698776,349.415466 155.435028,357.934845 148.046478,364.843048 
	C146.486115,366.302002 144.543076,367.351624 142.431915,368.764893 
z"/>
<path fill="#000000" opacity="1.000000" stroke="none" 
	d="
M566.860840,159.495514 
	C555.165222,153.369064 550.238831,143.109589 552.957581,131.129471 
	C555.222473,121.149185 565.056396,113.028503 575.274048,112.700912 
	C585.244690,112.381248 594.718506,118.053795 598.603210,126.930099 
	C602.618042,136.103683 601.849060,144.931473 595.240601,152.592194 
	C587.681458,161.354996 578.119934,163.479996 566.860840,159.495514 
z"/>
<path fill="#000000" opacity="1.000000" stroke="none" 
	d="
M413.435425,327.306091 
	C425.526337,318.473969 442.119141,322.775360 448.644745,333.972382 
	C455.744019,346.153717 452.099091,361.168457 440.356079,367.905396 
	C429.106232,374.359406 415.583313,371.356781 408.042511,360.730560 
	C400.816132,350.547363 402.944763,336.683807 413.435425,327.306091 
z"/>
</svg>