<svg version="1.1" id="Layer_1" xmlns="http://www.w3.org/2000/svg" xmlns:xlink="http://www.w3.org/1999/xlink" x="0px" y="0px"
	 width="100%" viewBox="0 0 2270 746" enable-background="new 0 0 2270 746" xml:space="preserve">
<path fill="#FFFFFF" opacity="0.000000" stroke="none" 
	d="
M1644.000000,747.000000 
	C1096.000000,747.000000 548.500000,747.000000 1.000000,747.000000 
	C1.000000,498.333344 1.000000,249.666672 1.000000,1.000000 
	C757.666687,1.000000 1514.333374,1.000000 2271.000000,1.000000 
	C2271.000000,249.666672 2271.000000,498.333344 2271.000000,747.000000 
	C2062.166748,747.000000 1853.333374,747.000000 1644.000000,747.000000 
M1838.916260,286.593079 
	C1799.944092,246.008987 1757.711060,243.620621 1711.942505,276.483276 
	C1711.942505,274.228607 1711.942505,272.626556 1711.942627,271.024506 
	C1711.945435,232.202911 1711.876465,193.380997 1712.047119,154.560150 
	C1712.067261,149.962341 1710.774536,148.522293 1706.132080,148.580307 
	C1687.473999,148.813568 1668.809570,148.807266 1650.151367,148.579636 
	C1645.796753,148.526505 1644.531372,149.669388 1644.537476,154.141296 
	C1644.669556,251.111786 1644.638550,348.082520 1644.637939,445.053192 
	C1644.637939,446.552734 1644.730469,448.060913 1644.603149,449.549957 
	C1644.362183,452.369659 1645.644775,453.420074 1648.380005,453.414612 
	C1668.207153,453.374939 1688.034546,453.371735 1707.861450,453.427338 
	C1710.863159,453.435760 1712.063354,452.159790 1711.967529,449.213623 
	C1711.853027,445.691315 1711.940552,442.162415 1711.940552,437.450500 
	C1714.860596,439.686279 1716.568848,440.944977 1718.224609,442.269287 
	C1744.088745,462.955505 1781.587280,466.407654 1810.702148,450.483459 
	C1843.839722,432.359100 1860.599487,403.214935 1863.900269,366.586456 
	C1866.548218,337.202087 1858.377930,310.283264 1838.916260,286.593079 
M244.395798,388.938385 
	C236.838455,410.075714 229.281113,431.213043 221.399963,453.256042 
	C224.458878,453.256042 226.248581,453.256042 228.038284,453.256042 
	C248.530319,453.256134 269.022339,453.256287 289.514374,453.256348 
	C300.317413,453.256409 300.423126,453.291595 303.783661,443.215027 
	C322.640106,386.673187 341.434174,330.110504 360.273407,273.562927 
	C362.036987,268.269348 363.967255,263.031311 366.217010,256.640137 
	C367.127136,259.217438 367.580292,260.440704 367.992737,261.677521 
	C375.291779,283.565338 382.598572,305.450623 389.878143,327.344940 
	C403.295410,367.699066 416.733704,408.046326 430.038330,448.437561 
	C431.203949,451.976196 432.820190,453.379791 436.710114,453.348145 
	C459.699677,453.161224 482.691498,453.261047 505.682556,453.242676 
	C507.109772,453.241547 508.536896,453.055908 510.724640,452.902893 
	C508.509491,446.566742 506.554565,440.809052 504.488708,435.091431 
	C483.332581,376.537323 462.135956,317.997894 440.998840,259.436920 
	C430.563721,230.526108 420.244720,201.573410 409.820526,172.658646 
	C408.960022,170.271698 408.445831,167.871994 404.594391,167.903915 
	C378.939484,168.116531 353.281494,167.954971 327.626312,168.150711 
	C326.071960,168.162567 323.656647,169.872253 323.116486,171.336044 
	C312.651428,199.696136 302.374634,228.125992 292.123596,256.564728 
	C276.306152,300.445984 260.537323,344.344818 244.395798,388.938385 
M1571.499756,453.512909 
	C1582.130859,453.512909 1592.761963,453.512909 1603.482056,453.512909 
	C1603.482056,388.732819 1603.482056,324.374664 1603.482056,260.133057 
	C1581.035767,260.133057 1558.945435,260.133057 1536.231934,260.133057 
	C1536.231934,265.921631 1536.231934,271.417542 1536.231934,277.457947 
	C1533.092896,275.032928 1530.654297,273.088776 1528.154541,271.226776 
	C1493.901489,245.712952 1446.431763,249.107590 1416.104492,279.163666 
	C1398.239746,296.868744 1387.771240,318.181122 1384.840332,343.130981 
	C1380.958618,376.171844 1389.127075,405.763000 1411.510010,430.665802 
	C1437.571777,459.661499 1476.389771,468.523499 1510.883667,453.356232 
	C1519.792847,449.438812 1527.812134,443.497742 1536.539795,438.308044 
	C1536.539795,443.042328 1536.539795,448.090363 1536.539795,453.512878 
	C1548.235107,453.512878 1559.367432,453.512878 1571.499756,453.512909 
M1009.823853,449.726898 
	C1025.227661,456.838867 1041.468628,460.394012 1058.373169,460.951416 
	C1083.994629,461.796173 1108.312256,456.950897 1130.063232,442.844421 
	C1157.300781,425.179688 1172.955933,399.962646 1176.310547,367.644257 
	C1181.226196,320.286102 1155.835815,277.913971 1110.718384,261.264771 
	C1073.840454,247.656174 1036.887207,249.076080 1002.040405,268.372833 
	C971.475037,285.298737 954.575195,312.140778 951.145081,346.824524 
	C948.816345,370.371368 953.866028,392.577789 966.919922,412.671387 
	C977.498840,428.955383 991.701355,441.018982 1009.823853,449.726898 
M529.338318,390.133148 
	C531.107483,420.043304 545.972595,440.993225 573.884583,451.264557 
	C607.819641,463.752289 642.768372,463.971313 677.286255,453.966888 
	C712.302429,443.818085 729.179749,421.726532 729.813660,385.543518 
	C730.537415,344.227997 729.990662,302.890167 729.981262,261.562042 
	C729.981140,261.099213 729.784180,260.636475 729.680786,260.181183 
	C707.367920,260.181183 685.168762,260.181183 662.829041,260.181183 
	C662.829041,262.356689 662.829041,264.180481 662.829041,266.004272 
	C662.829041,300.666870 662.870728,335.329559 662.800842,369.992004 
	C662.782532,379.070709 661.646790,387.932098 655.006104,394.967407 
	C645.907532,404.606659 628.395508,407.537903 614.186218,401.884125 
	C602.665588,397.300140 596.545471,387.207367 596.526611,372.381531 
	C596.481262,336.719116 596.511902,301.056610 596.511841,265.394135 
	C596.511841,263.634064 596.511841,261.874023 596.511841,260.083618 
	C573.747864,260.083618 551.655701,260.083618 529.178711,260.083618 
	C529.178711,303.294250 529.178711,346.251495 529.338318,390.133148 
M1282.167236,316.500061 
	C1282.167236,267.093903 1282.167236,217.687744 1282.167236,168.208755 
	C1258.201782,168.208755 1234.788574,168.208755 1211.348877,168.208755 
	C1211.348877,263.246307 1211.348877,358.075134 1211.348877,452.745941 
	C1264.282471,452.745941 1316.866943,452.745941 1369.605591,452.745941 
	C1369.605591,431.750977 1369.605591,411.010498 1369.605591,389.793274 
	C1340.486206,389.793274 1311.589355,389.793274 1282.167236,389.793274 
	C1282.167236,365.379974 1282.167236,341.440033 1282.167236,316.500061 
M1979.879639,393.729645 
	C1980.341675,398.353455 1978.099243,401.616364 1974.667603,404.365723 
	C1966.103271,411.226990 1956.334351,410.292786 1946.649170,408.342377 
	C1932.051392,405.402649 1919.007935,398.686340 1906.718018,390.575836 
	C1906.319946,390.859406 1905.931763,390.990295 1905.798828,391.251251 
	C1898.227661,406.108093 1890.718384,420.996674 1883.088135,435.823059 
	C1881.717896,438.485535 1883.117310,439.323334 1885.131592,440.294739 
	C1889.730103,442.512634 1894.188599,445.034607 1898.846924,447.112976 
	C1929.768433,460.909119 1961.484375,465.166321 1994.391602,454.900543 
	C2024.410400,445.535797 2045.351929,423.720367 2046.754272,391.574066 
	C2047.442261,375.805573 2044.315674,361.265869 2032.635864,349.613586 
	C2023.409058,340.408630 2011.720093,335.921875 1999.609863,332.201294 
	C1989.321655,329.040497 1978.792480,326.471710 1968.838013,322.475037 
	C1959.785278,318.840363 1959.599121,309.326691 1967.851807,303.887695 
	C1974.686890,299.383026 1982.414917,298.976501 1989.970459,300.658295 
	C1999.582520,302.797913 2008.974121,305.927765 2018.998535,308.783966 
	C2026.133423,294.783936 2033.567261,280.197296 2041.024414,265.564819 
	C2040.387451,265.118713 2039.901611,264.615295 2039.309570,264.387054 
	C2008.583984,252.542068 1977.156250,248.220261 1945.211060,258.217743 
	C1919.960815,266.119995 1902.260376,282.115997 1897.440796,309.467926 
	C1894.970337,323.488495 1895.429443,337.367737 1902.636841,350.077454 
	C1909.837036,362.774750 1922.129883,368.619873 1935.482178,372.438934 
	C1945.049805,375.175476 1954.838867,377.139160 1964.402588,379.887665 
	C1971.339478,381.881226 1978.062866,384.603027 1979.879639,393.729645 
M880.001343,446.491943 
	C880.001343,432.681244 880.001343,418.870514 880.001343,405.052643 
	C878.832886,404.912018 878.011536,404.771423 877.184631,404.719727 
	C855.005005,403.333740 845.729431,388.596008 845.866272,369.472351 
	C846.252686,315.484802 846.001343,261.492706 846.001343,207.502380 
	C846.001343,205.717010 846.001343,203.931625 846.001343,202.203369 
	C823.328064,202.203369 801.128235,202.203369 778.542969,202.203369 
	C778.542969,221.659729 778.542969,240.744461 778.542969,260.165253 
	C771.386963,260.165253 764.618286,260.165253 757.719238,260.165253 
	C757.719238,279.946869 757.719238,299.383240 757.719238,319.405365 
	C764.834229,319.405365 771.731079,319.405365 778.830688,319.405365 
	C778.830688,321.811066 778.830688,323.633728 778.830688,325.456390 
	C778.830688,346.285980 778.685913,367.116882 778.872009,387.944824 
	C779.052551,408.145630 785.617004,425.752594 801.266418,439.207764 
	C809.818481,446.560760 819.904053,451.112976 830.649353,454.347900 
	C846.695068,459.178650 863.111755,460.582367 880.001343,460.432159 
	C880.001343,455.798584 880.001343,451.642670 880.001343,446.491943 
M334.756317,382.316498 
	C325.023987,398.576324 327.350128,418.792694 340.339020,430.835388 
	C354.309265,443.787994 372.764740,445.204773 387.677063,433.825562 
	C400.625885,423.944672 405.708984,410.470734 402.148529,394.563141 
	C398.648163,378.923828 388.660309,368.487305 372.916443,365.280029 
	C356.982178,362.033997 344.307739,368.350189 334.756317,382.316498 
M890.339539,336.248291 
	C906.470215,338.859222 921.319458,330.817932 929.538269,315.021210 
	C941.479431,292.070038 924.431213,261.344696 898.988159,259.962067 
	C879.097900,258.881195 861.569702,273.301758 859.096436,292.781311 
	C856.484009,313.356812 869.567444,332.007416 890.339539,336.248291 
M1590.995239,577.491882 
	C1590.995239,581.907959 1590.995239,586.324097 1590.995239,590.590454 
	C1597.772827,590.590454 1603.653076,590.590454 1609.897827,590.590454 
	C1609.897827,588.318542 1609.900391,586.508667 1609.897461,584.698792 
	C1609.881470,575.043945 1610.329346,565.358887 1609.706543,555.743286 
	C1609.164917,547.384033 1605.956421,540.250427 1596.672485,537.759827 
	C1587.677734,535.346924 1580.703491,538.123230 1575.320190,545.496033 
	C1574.970581,545.974670 1574.547607,546.399597 1574.079102,546.941895 
	C1566.395142,534.758911 1551.038818,534.001953 1541.310181,542.400879 
	C1540.974854,540.958069 1540.663452,539.618042 1540.385620,538.422363 
	C1534.122803,538.422363 1528.236938,538.422363 1522.351929,538.422363 
	C1522.351929,556.076965 1522.351929,573.303406 1522.351929,590.684753 
	C1528.592407,590.684753 1534.471802,590.684753 1540.897705,590.684753 
	C1540.897705,588.538757 1540.895752,586.744629 1540.897949,584.950500 
	C1540.908203,576.627014 1540.592529,568.282471 1541.125244,559.992554 
	C1541.290283,557.425232 1543.205078,554.044983 1545.344360,552.803223 
	C1547.290527,551.673340 1551.689453,551.918518 1553.105591,553.389038 
	C1555.262817,555.629028 1556.609253,559.392578 1556.827393,562.608948 
	C1557.344116,570.231689 1556.977295,577.913269 1557.009033,585.570862 
	C1557.016235,587.312439 1557.191772,589.053345 1557.304321,591.052979 
	C1562.604126,591.052979 1567.260986,590.913086 1571.904297,591.102783 
	C1574.929321,591.226440 1576.007202,590.177307 1575.951538,587.106689 
	C1575.794434,578.452942 1575.887695,569.794556 1575.901245,561.138000 
	C1575.910522,555.253784 1578.188354,552.185181 1582.660156,551.969788 
	C1587.682983,551.727966 1590.742310,554.917664 1590.952759,561.015137 
	C1591.130615,566.169678 1590.993164,571.335144 1590.995239,577.491882 
M1511.897705,564.551270 
	C1511.896606,562.385681 1511.978516,560.216248 1511.880615,558.055054 
	C1511.238647,543.880737 1503.647339,536.316589 1490.980347,536.977295 
	C1484.089722,537.336731 1480.103394,541.962585 1476.259277,546.820129 
	C1465.012207,534.916199 1457.131714,533.695496 1444.103516,541.495972 
	C1442.918823,540.310486 1441.835815,538.259216 1440.621338,538.178223 
	C1435.222534,537.817932 1429.786255,538.021912 1424.351685,538.021912 
	C1424.351685,556.060242 1424.351685,573.294556 1424.351685,590.680664 
	C1430.594604,590.680664 1436.476685,590.680664 1442.898926,590.680664 
	C1442.898926,580.360474 1442.930664,570.404297 1442.884033,560.448425 
	C1442.863892,556.139709 1444.266479,552.875366 1448.901611,552.054138 
	C1453.926270,551.163940 1457.223145,553.165833 1458.218994,558.584717 
	C1459.050171,563.107239 1458.885986,567.830566 1458.968750,572.468445 
	C1459.077271,578.553223 1458.995239,584.641418 1458.995239,590.592712 
	C1465.763062,590.592712 1471.645874,590.592712 1477.634033,590.592712 
	C1477.742065,588.994629 1477.884521,587.847473 1477.886963,586.700073 
	C1477.905884,577.704651 1477.890015,568.709290 1477.902466,559.713867 
	C1477.908325,555.511780 1479.757935,552.597290 1484.089233,552.051575 
	C1488.337891,551.516296 1491.189941,553.505981 1492.088989,557.777405 
	C1492.563354,560.030762 1492.928711,562.351746 1492.955322,564.646729 
	C1493.055176,573.255005 1492.995239,581.865112 1492.995239,591.052856 
	C1498.414185,591.052856 1503.205444,590.902039 1507.981445,591.106384 
	C1511.109375,591.240173 1512.012573,590.002014 1511.947388,587.024536 
	C1511.790527,579.864929 1511.897095,572.699646 1511.897705,564.551270 
M1343.987793,525.652649 
	C1332.114624,511.710541 1317.021606,507.836761 1299.873779,512.659607 
	C1277.775513,518.874817 1267.009644,540.687317 1273.437988,564.865479 
	C1277.886841,581.598755 1290.137207,591.865967 1308.055786,593.879517 
	C1324.156372,595.688721 1340.458740,586.945312 1347.989258,572.020935 
	C1341.585449,569.397583 1335.221558,566.790527 1328.850708,564.180664 
	C1328.061890,565.226074 1327.358276,565.956299 1326.886475,566.814087 
	C1319.588257,580.077087 1301.713013,578.692505 1295.673340,565.583069 
	C1293.181274,560.173645 1292.884888,553.285767 1293.221680,547.160095 
	C1293.628662,539.756775 1297.476807,533.268677 1304.537476,530.141418 
	C1311.267090,527.160767 1317.993164,528.486450 1323.602417,533.438171 
	C1325.656128,535.251038 1327.187378,537.655579 1329.080811,539.939514 
	C1333.498291,538.078918 1337.819458,536.372559 1342.043579,534.452393 
	C1347.990845,531.748962 1347.960083,531.681213 1343.987793,525.652649 
M828.109131,507.103912 
	C823.193970,507.103912 818.278870,507.103912 813.044434,507.103912 
	C813.044434,513.608276 813.044373,519.248779 813.044373,524.889343 
	C813.044373,530.441162 813.044434,535.992981 813.044434,541.894775 
	C795.777832,533.887756 785.035828,535.557190 776.644348,547.058899 
	C768.530701,558.179810 769.575928,575.527283 778.949158,585.312439 
	C787.868347,594.623657 800.448792,595.541260 811.192566,588.533569 
	C813.777527,589.613525 815.461426,590.799377 817.237061,590.957886 
	C820.868164,591.282104 824.554443,590.926575 828.206787,591.094727 
	C831.059143,591.226074 831.946350,590.066284 831.938782,587.301880 
	C831.869629,562.014099 831.945374,536.725769 831.775146,511.438934 
	C831.765381,509.996063 829.978271,508.565125 828.109131,507.103912 
M1170.795410,573.485840 
	C1177.000366,591.791626 1192.578369,597.694336 1209.507568,588.572449 
	C1215.973755,593.328796 1222.876221,590.068970 1229.545410,591.042725 
	C1229.545410,562.769897 1229.545410,535.117920 1229.545410,507.102753 
	C1227.442505,507.102753 1225.796997,507.106079 1224.151367,507.102264 
	C1211.102905,507.072144 1211.102905,507.071686 1211.102905,520.256836 
	C1211.102905,527.275391 1211.102905,534.294006 1211.102905,541.781311 
	C1196.553467,532.887329 1184.790161,536.309448 1177.690918,544.047852 
	C1170.205078,552.207581 1168.223145,562.000732 1170.795410,573.485840 
M634.557922,545.802185 
	C629.728760,544.038879 624.663452,542.718445 620.171387,540.322876 
	C617.968262,539.148010 615.141357,535.501160 615.614685,533.825439 
	C616.279358,531.472229 619.491882,529.135742 622.107605,528.253723 
	C624.295715,527.515808 627.276855,528.604431 629.748596,529.385315 
	C632.064087,530.116760 634.171814,531.505920 636.619629,532.729980 
	C639.206970,527.556641 641.645203,522.681519 644.252563,517.468079 
	C635.798645,512.071594 626.839355,510.287628 617.376160,511.041656 
	C601.190247,512.331299 593.318115,524.946960 594.472107,539.680847 
	C595.284607,550.054077 602.605530,554.645020 611.277100,557.913757 
	C615.153381,559.374817 619.241638,560.513062 622.778992,562.577026 
	C627.982544,565.613159 627.458435,571.516479 622.225647,574.508362 
	C617.376282,577.281128 612.888733,575.531189 608.420105,573.678406 
	C605.332214,572.398132 601.245667,568.881470 599.595947,569.829224 
	C596.888062,571.384827 595.784180,575.747131 594.030334,578.940369 
	C593.470032,579.960510 592.516724,581.061401 592.589905,582.063538 
	C592.700012,583.572083 593.118103,585.790771 594.160217,586.386292 
	C605.581055,592.912598 617.663940,595.354004 630.513184,591.167786 
	C639.978516,588.084106 645.521912,581.242371 646.845642,571.656067 
	C648.317566,560.996765 646.523865,551.246887 634.557922,545.802185 
M450.954803,575.498169 
	C450.963348,570.504761 450.772156,565.500854 451.035004,560.520874 
	C451.312866,555.257263 454.976593,552.037048 460.178772,551.967163 
	C464.887787,551.903870 467.559662,554.663269 467.979919,560.334290 
	C468.188507,563.149048 468.042084,565.990723 468.043732,568.820190 
	C468.047943,576.078918 468.045166,583.337646 468.045166,590.665039 
	C474.704803,590.665039 480.585724,590.665039 486.954681,590.665039 
	C486.954681,579.164307 486.974274,568.046509 486.949463,556.928833 
	C486.921448,544.367737 479.646820,536.645630 467.203217,537.189392 
	C461.741943,537.428040 456.372742,539.773621 450.953400,541.164734 
	C450.953400,531.894287 451.064941,521.746216 450.831879,511.606140 
	C450.797333,510.104095 449.235321,507.444214 448.209808,507.358612 
	C442.988983,506.922760 437.712219,507.157562 432.400116,507.157562 
	C432.400116,535.433228 432.400116,562.970459 432.400116,590.698853 
	C438.639099,590.698853 444.519684,590.698853 450.954712,590.698853 
	C450.954712,585.734375 450.954712,581.115051 450.954803,575.498169 
M1411.504272,578.837585 
	C1419.789551,561.693237 1414.124756,545.691589 1397.115479,538.611084 
	C1389.339355,535.374023 1381.462524,535.416565 1373.283203,537.706970 
	C1355.784302,542.606995 1347.585571,563.837585 1356.859985,579.362793 
	C1366.793091,595.990723 1398.843994,599.503784 1411.504272,578.837585 
M1884.770996,557.287109 
	C1887.858276,551.108093 1890.945679,544.929077 1894.409546,537.996460 
	C1889.078125,537.996460 1884.747925,538.347656 1880.501709,537.900940 
	C1875.955688,537.422607 1873.622070,539.119019 1871.837158,543.246582 
	C1869.046509,549.699951 1865.591797,555.866089 1861.933960,563.113586 
	C1860.496704,560.581665 1859.643311,559.210388 1858.916748,557.774902 
	C1856.138306,552.284363 1853.549316,546.690002 1850.549438,541.324646 
	C1849.737915,539.872986 1847.778564,538.240967 1846.259888,538.151123 
	C1840.160889,537.790100 1834.027954,538.001770 1827.447510,538.001770 
	C1827.973511,539.363586 1828.226196,540.303284 1828.675049,541.137390 
	C1835.600708,554.008301 1842.653687,566.812683 1849.381592,579.785706 
	C1850.335693,581.625244 1850.548096,584.634644 1849.717651,586.478210 
	C1846.171631,594.351318 1842.091919,601.983337 1838.240723,609.720154 
	C1837.486572,611.235168 1836.882446,612.824890 1835.917480,615.053894 
	C1841.529053,615.053894 1846.188110,615.315125 1850.791138,614.920959 
	C1852.548462,614.770447 1854.960327,613.541016 1855.745605,612.086243 
	C1865.446045,594.114441 1874.900513,576.010010 1884.770996,557.287109 
M551.774048,561.915222 
	C549.541748,556.119263 548.269104,549.671692 544.871277,544.667053 
	C538.408875,535.148743 523.547058,533.909119 512.016785,538.149963 
	C502.242432,541.744934 496.669250,549.060364 495.252075,559.254639 
	C493.828339,569.496094 495.914368,579.111023 503.957855,586.077148 
	C514.932190,595.581543 534.336365,595.499451 545.690918,586.487610 
	C550.126099,582.967529 551.756042,578.128540 551.873962,571.946045 
	C546.932068,571.946045 542.459778,571.673645 538.050720,572.082764 
	C536.333557,572.242065 534.187744,573.557373 533.225952,575.003662 
	C530.290100,579.418701 525.859924,581.011292 520.254517,579.023315 
	C515.262695,577.252991 513.621643,574.295837 514.574768,567.900574 
	C526.823059,567.900574 539.197144,567.900574 551.908997,567.900574 
	C551.908997,565.727356 551.908997,564.253235 551.774048,561.915222 
M1129.450806,578.268799 
	C1125.245605,576.193237 1124.755005,572.408264 1124.510132,567.728882 
	C1137.436523,567.728882 1150.001709,567.728882 1164.047974,567.728882 
	C1161.967407,560.513977 1161.145020,553.711365 1158.140625,548.071045 
	C1151.994507,536.532471 1136.610352,532.730103 1122.501343,538.316162 
	C1113.067017,542.051392 1107.152954,548.909058 1106.109741,559.081360 
	C1104.849365,571.372192 1107.229858,582.422729 1119.231689,589.015686 
	C1130.394897,595.147827 1141.709961,594.106262 1152.767944,588.934448 
	C1158.336914,586.329773 1161.478027,581.307373 1162.509521,575.280273 
	C1162.668701,574.349548 1160.868042,572.196960 1159.840210,572.105286 
	C1155.707275,571.737000 1151.518188,571.862610 1147.358521,572.026917 
	C1146.368896,572.065979 1145.064331,572.709412 1144.496216,573.500000 
	C1139.681519,580.199463 1137.740234,580.945740 1129.450806,578.268799 
M840.992798,570.340027 
	C843.072449,574.782288 844.367554,579.864624 847.374512,583.550415 
	C857.606384,596.092163 878.480042,595.264282 889.735168,587.474121 
	C895.597595,583.416565 897.801758,577.925171 896.060486,571.949768 
	C891.542786,571.949768 886.895752,571.771179 882.279602,572.069885 
	C881.059570,572.148804 879.521667,573.456848 878.839661,574.617554 
	C876.238831,579.044128 871.783264,580.797363 866.535217,579.102417 
	C860.986572,577.310425 858.872620,573.977234 859.829956,567.859253 
	C871.972534,567.859253 884.208984,567.859253 896.322754,567.859253 
	C899.421448,552.444702 890.857117,539.147156 875.703918,536.562012 
	C856.026733,533.205017 837.062744,545.563416 840.992798,570.340027 
M1685.057129,589.162476 
	C1686.376465,589.792664 1687.662842,590.865112 1689.021606,590.966492 
	C1692.498535,591.226074 1696.024170,590.842285 1699.499634,591.112000 
	C1703.111206,591.392334 1704.036255,589.903198 1703.962280,586.508667 
	C1703.773682,577.855408 1703.790894,569.192749 1703.958374,560.538330 
	C1704.074219,554.556030 1708.432495,551.128784 1714.302979,552.023865 
	C1718.668213,552.689514 1720.911743,555.761597 1720.968628,561.662537 
	C1721.061401,571.264954 1720.993530,580.868958 1720.993530,591.022400 
	C1726.914307,591.022400 1732.202881,591.180542 1737.463257,590.866089 
	C1738.336548,590.813843 1739.766235,588.711182 1739.786987,587.535828 
	C1739.968506,577.216614 1740.214722,566.879761 1739.801514,556.573792 
	C1739.312988,544.391541 1732.347534,537.391113 1721.603149,536.946289 
	C1715.173218,536.680115 1709.511108,538.304260 1704.383057,542.736816 
	C1703.978149,540.980103 1703.667603,539.632751 1703.388062,538.419617 
	C1697.129150,538.419617 1691.244019,538.419617 1685.006592,538.419617 
	C1685.006592,555.302246 1685.006592,571.763916 1685.057129,589.162476 
M1645.569824,593.004517 
	C1647.901611,592.991516 1650.237183,593.060730 1652.564575,592.952148 
	C1666.894897,592.283447 1674.863892,583.982300 1674.896240,569.717224 
	C1674.913696,562.055054 1674.899414,554.392822 1674.899414,546.730591 
	C1674.899414,543.968689 1674.899414,541.206848 1674.899414,538.407959 
	C1668.224976,538.407959 1662.343140,538.407959 1656.024048,538.407959 
	C1656.024048,548.783325 1656.106445,558.751892 1655.990234,568.718140 
	C1655.929443,573.939880 1652.071411,577.915222 1647.449341,577.933716 
	C1641.916260,577.955811 1638.107178,574.274048 1638.031372,568.541260 
	C1637.927979,560.713867 1638.005249,552.884094 1638.005005,545.055298 
	C1638.004883,542.810913 1638.004883,540.566528 1638.004883,538.451294 
	C1631.224609,538.451294 1625.338379,538.451294 1619.157837,538.451294 
	C1619.157837,550.044128 1618.571655,561.223572 1619.314087,572.314148 
	C1620.143066,584.698181 1624.842651,589.315002 1637.233032,592.160339 
	C1639.632690,592.711426 1642.153198,592.736511 1645.569824,593.004517 
M749.342712,591.073181 
	C760.434509,586.493164 763.001587,582.661255 763.002319,570.681580 
	C763.002808,563.520386 763.002502,556.359131 763.002502,549.197937 
	C763.002502,545.605103 763.002441,542.012207 763.002441,538.335693 
	C756.647034,538.335693 751.076843,538.335693 744.946594,538.335693 
	C744.946594,545.779114 745.023193,552.898682 744.914795,560.015442 
	C744.859375,563.649475 744.898743,567.371216 744.134521,570.887939 
	C743.010376,576.060059 739.304993,578.495667 734.814636,577.801636 
	C729.123352,576.921936 727.001221,574.553101 726.914490,568.791443 
	C726.846863,564.295837 726.897095,559.798523 726.896484,555.301941 
	C726.895630,549.699097 726.896240,544.096313 726.896240,538.355164 
	C720.273438,538.355164 714.386292,538.355164 708.117310,538.355164 
	C708.117310,550.992981 707.531921,563.315247 708.325317,575.548157 
	C708.844666,583.554810 713.841370,589.256592 722.037537,591.417053 
	C730.892273,593.751038 739.736084,593.887817 749.342712,591.073181 
M389.995361,582.447205 
	C389.995361,585.189514 389.995361,587.931824 389.995361,590.561584 
	C397.096161,590.561584 403.310364,590.561584 409.899261,590.561584 
	C409.899261,588.313293 409.899261,586.506287 409.899261,584.699280 
	C409.899292,568.563171 410.072052,552.423950 409.788971,536.292847 
	C409.709167,531.743958 411.170624,530.412659 415.465881,530.833191 
	C418.834717,531.163025 422.261658,530.899414 425.498260,530.899414 
	C425.498260,524.402954 425.498260,518.849670 425.498260,513.426331 
	C407.846771,513.426331 390.654755,513.426331 373.104126,513.426331 
	C373.104126,518.210327 373.197601,522.519165 373.072266,526.821594 
	C372.984253,529.841919 374.280212,531.015259 377.242340,530.926819 
	C381.328583,530.804810 385.421204,530.896179 389.995361,530.896179 
	C389.995361,548.261353 389.995361,564.860229 389.995361,582.447205 
M952.767883,539.536438 
	C942.908569,534.851135 933.837280,536.187988 925.380798,543.548462 
	C925.091064,541.579163 924.862183,540.023132 924.629822,538.443359 
	C918.689941,538.443359 912.984558,538.443359 907.338257,538.443359 
	C907.338257,556.117004 907.338257,573.344421 907.338257,590.727295 
	C913.300110,590.727295 918.868652,590.727295 925.051636,590.727295 
	C925.051636,581.973633 924.932678,573.527222 925.119385,565.087646 
	C925.180481,562.325073 925.689514,559.457825 926.608093,556.855347 
	C928.038025,552.803894 931.532593,551.760010 935.500732,551.979980 
	C939.438049,552.198303 941.533325,554.445068 942.065369,558.222473 
	C942.433899,560.838074 942.873108,563.471008 942.908508,566.101196 
	C943.017822,574.209290 942.948425,582.319702 942.948425,590.626221 
	C949.269287,590.626221 954.956055,590.626221 961.044312,590.626221 
	C961.044312,578.406738 961.020874,566.607910 961.053772,554.809265 
	C961.071350,548.505432 958.437073,543.630676 952.767883,539.536438 
M1058.046631,545.500000 
	C1058.046631,560.569031 1058.046631,575.638062 1058.046631,590.543579 
	C1073.192505,590.543579 1087.411865,590.543579 1101.543701,590.543579 
	C1101.543701,584.836914 1101.543701,579.598450 1101.543701,573.780701 
	C1093.568359,573.780701 1085.994141,573.780701 1077.850342,573.780701 
	C1077.850342,553.294922 1077.850342,533.396606 1077.850342,513.299683 
	C1071.039062,513.299683 1064.822632,513.299683 1058.758789,513.299683 
	C1058.462769,513.941345 1058.210815,514.233887 1058.208862,514.528198 
	C1058.140137,524.518738 1058.095093,534.509338 1058.046631,545.500000 
M677.899231,528.610718 
	C677.899231,526.526611 677.899231,524.442505 677.899231,522.424438 
	C671.129517,522.424438 665.237183,522.424438 658.804199,522.424438 
	C658.804199,527.764954 658.804199,532.681946 658.804199,537.582825 
	C656.671326,537.921387 655.081482,538.173706 653.359985,538.446960 
	C653.359985,543.645447 653.359985,548.553345 653.359985,553.506470 
	C655.359253,553.940491 657.068909,554.311646 658.995789,554.729980 
	C658.995789,560.501709 659.329651,566.013123 658.933105,571.471558 
	C657.751221,587.740784 673.600525,594.592041 686.954773,592.157776 
	C686.954773,589.125671 686.740540,585.973450 687.015076,582.864380 
	C687.289917,579.751282 686.394348,577.953247 683.223083,577.052673 
	C679.079224,575.875732 677.816284,572.719299 677.855164,568.568420 
	C677.976868,555.575378 677.899414,542.580505 677.899231,528.610718 
M1809.590332,578.491150 
	C1802.324463,576.443420 1800.598877,571.240112 1800.919067,564.330627 
	C1801.280762,556.526062 1801.002197,548.691956 1801.002075,540.870667 
	C1801.002075,534.768555 1801.002197,528.666443 1801.002197,522.323059 
	C1794.474731,522.323059 1788.593262,522.323059 1782.125122,522.323059 
	C1782.125122,527.532654 1782.125122,532.443420 1782.125122,537.242188 
	C1780.065308,537.873291 1778.567017,538.332336 1777.245850,538.737122 
	C1777.245850,543.896057 1777.245850,548.666504 1777.245850,553.546082 
	C1778.900635,553.929504 1780.297852,554.253235 1781.655884,554.567871 
	C1782.091064,561.599426 1782.308472,568.376404 1782.970825,575.109741 
	C1784.187622,587.477173 1797.241577,595.722961 1809.937744,592.081177 
	C1809.937744,587.863892 1809.937744,583.562439 1809.590332,578.491150 
M975.183167,577.780334 
	C976.739746,589.498718 993.493408,594.877075 1002.886841,592.027344 
	C1002.886841,588.352844 1003.068542,584.532959 1002.772522,580.750549 
	C1002.687378,579.663452 1001.404297,578.059021 1000.362915,577.758911 
	C994.394653,576.038391 993.038696,571.638062 993.047058,566.227600 
	C993.066772,553.398254 993.063293,540.568848 993.042053,527.739502 
	C993.039124,525.973083 992.881897,524.206970 992.790100,522.314636 
	C986.700500,522.314636 981.126343,522.314636 974.972656,522.314636 
	C974.972656,527.522339 974.972656,532.439514 974.972656,537.400635 
	C972.717712,537.862854 971.007446,538.213440 969.344055,538.554382 
	C969.344055,543.793640 969.344055,548.714417 969.344055,553.862854 
	C974.200439,553.423340 975.226868,555.839294 975.026001,559.928284 
	C974.748474,565.576904 975.024841,571.252686 975.183167,577.780334 
M1768.899414,576.494446 
	C1768.899414,563.769958 1768.899414,551.045532 1768.899414,538.431030 
	C1762.104614,538.431030 1756.217773,538.431030 1750.346436,538.431030 
	C1750.346436,556.085938 1750.346436,573.302734 1750.346436,590.779053 
	C1752.134766,590.883728 1753.596069,591.030762 1755.058716,591.045349 
	C1768.900513,591.183411 1768.900635,591.176941 1768.899414,576.494446 
M1820.482178,557.174500 
	C1821.170776,556.481262 1821.955933,555.859741 1822.532227,555.083130 
	C1825.976318,550.443298 1825.742554,544.576843 1822.028442,541.121033 
	C1818.014771,537.386658 1812.252319,536.996643 1808.451538,540.202209 
	C1804.213745,543.776184 1803.315552,549.852844 1806.338989,554.494385 
	C1809.232422,558.936279 1814.520142,560.153503 1820.482178,557.174500 
M1017.006409,547.616089 
	C1016.782654,542.354004 1013.605042,539.349609 1008.899719,538.280396 
	C1004.719910,537.330505 1001.002319,538.832703 998.684448,542.711426 
	C996.276978,546.740112 995.858215,551.044983 998.743652,554.859375 
	C1001.432678,558.414062 1005.545715,560.012146 1009.843994,558.682800 
	C1014.555420,557.225525 1016.902649,553.450500 1017.006409,547.616089 
M696.732117,557.492249 
	C697.756592,556.415100 698.979675,555.465942 699.770264,554.238220 
	C702.812561,549.513489 701.206665,542.563354 696.559143,539.813293 
	C691.202698,536.643799 685.797913,537.842041 682.790222,542.876160 
	C680.211487,547.192200 680.483093,551.435974 683.375366,555.447876 
	C685.854492,558.886719 690.749817,559.748901 696.732117,557.492249 
M1760.875244,507.445953 
	C1755.143066,506.860626 1751.320923,509.326294 1749.634888,514.697144 
	C1748.167847,519.370361 1749.795166,524.028809 1753.698730,526.330200 
	C1757.241455,528.418945 1760.883057,528.868530 1764.487915,526.625000 
	C1768.699097,524.004211 1769.546143,519.918762 1768.977051,515.351379 
	C1768.432861,510.982361 1765.709351,508.680206 1760.875244,507.445953 
z"/>
<path fill="#FFFFFF" opacity="1.000000" stroke="none" 
	d="
M1839.127075,286.879395 
	C1858.377930,310.283264 1866.548218,337.202087 1863.900269,366.586456 
	C1860.599487,403.214935 1843.839722,432.359100 1810.702148,450.483459 
	C1781.587280,466.407654 1744.088745,462.955505 1718.224609,442.269287 
	C1716.568848,440.944977 1714.860596,439.686279 1711.940552,437.450500 
	C1711.940552,442.162415 1711.853027,445.691315 1711.967529,449.213623 
	C1712.063354,452.159790 1710.863159,453.435760 1707.861450,453.427338 
	C1688.034546,453.371735 1668.207153,453.374939 1648.380005,453.414612 
	C1645.644775,453.420074 1644.362183,452.369659 1644.603149,449.549957 
	C1644.730469,448.060913 1644.637939,446.552734 1644.637939,445.053192 
	C1644.638550,348.082520 1644.669556,251.111786 1644.537476,154.141296 
	C1644.531372,149.669388 1645.796753,148.526505 1650.151367,148.579636 
	C1668.809570,148.807266 1687.473999,148.813568 1706.132080,148.580307 
	C1710.774536,148.522293 1712.067261,149.962341 1712.047119,154.560150 
	C1711.876465,193.380997 1711.945435,232.202911 1711.942627,271.024506 
	C1711.942505,272.626556 1711.942505,274.228607 1711.942505,276.483276 
	C1757.711060,243.620621 1799.944092,246.008987 1839.127075,286.879395 
M1712.925903,345.667419 
	C1711.073364,355.506714 1711.595459,365.156677 1714.931274,374.662537 
	C1720.880981,391.617767 1739.464844,403.640900 1756.604004,401.500244 
	C1785.015991,397.951630 1802.042236,369.465363 1792.429077,341.562103 
	C1784.868042,319.615448 1761.925293,307.835297 1739.937378,315.022430 
	C1725.447998,319.758453 1717.363647,330.700684 1712.925903,345.667419 
z"/>
<path fill="#FFFFFF" opacity="1.000000" stroke="none" 
	d="
M244.571838,388.587280 
	C260.537323,344.344818 276.306152,300.445984 292.123596,256.564728 
	C302.374634,228.125992 312.651428,199.696136 323.116486,171.336044 
	C323.656647,169.872253 326.071960,168.162567 327.626312,168.150711 
	C353.281494,167.954971 378.939484,168.116531 404.594391,167.903915 
	C408.445831,167.871994 408.960022,170.271698 409.820526,172.658646 
	C420.244720,201.573410 430.563721,230.526108 440.998840,259.436920 
	C462.135956,317.997894 483.332581,376.537323 504.488708,435.091431 
	C506.554565,440.809052 508.509491,446.566742 510.724640,452.902893 
	C508.536896,453.055908 507.109772,453.241547 505.682556,453.242676 
	C482.691498,453.261047 459.699677,453.161224 436.710114,453.348145 
	C432.820190,453.379791 431.203949,451.976196 430.038330,448.437561 
	C416.733704,408.046326 403.295410,367.699066 389.878143,327.344940 
	C382.598572,305.450623 375.291779,283.565338 367.992737,261.677521 
	C367.580292,260.440704 367.127136,259.217438 366.217010,256.640137 
	C363.967255,263.031311 362.036987,268.269348 360.273407,273.562927 
	C341.434174,330.110504 322.640106,386.673187 303.783661,443.215027 
	C300.423126,453.291595 300.317413,453.256409 289.514374,453.256348 
	C269.022339,453.256287 248.530319,453.256134 228.038284,453.256042 
	C226.248581,453.256042 224.458878,453.256042 221.399963,453.256042 
	C229.281113,431.213043 236.838455,410.075714 244.571838,388.587280 
z"/>
<path fill="#FFFFFF" opacity="1.000000" stroke="none" 
	d="
M1570.999756,453.512878 
	C1559.367432,453.512878 1548.235107,453.512878 1536.539795,453.512878 
	C1536.539795,448.090363 1536.539795,443.042328 1536.539795,438.308044 
	C1527.812134,443.497742 1519.792847,449.438812 1510.883667,453.356232 
	C1476.389771,468.523499 1437.571777,459.661499 1411.510010,430.665802 
	C1389.127075,405.763000 1380.958618,376.171844 1384.840332,343.130981 
	C1387.771240,318.181122 1398.239746,296.868744 1416.104492,279.163666 
	C1446.431763,249.107590 1493.901489,245.712952 1528.154541,271.226776 
	C1530.654297,273.088776 1533.092896,275.032928 1536.231934,277.457947 
	C1536.231934,271.417542 1536.231934,265.921631 1536.231934,260.133057 
	C1558.945435,260.133057 1581.035767,260.133057 1603.482056,260.133057 
	C1603.482056,324.374664 1603.482056,388.732819 1603.482056,453.512909 
	C1592.761963,453.512909 1582.130859,453.512909 1570.999756,453.512878 
M1522.103394,323.395020 
	C1505.164429,308.171814 1481.274048,310.083954 1465.582886,325.626495 
	C1451.156250,339.916534 1448.948730,364.505737 1459.797485,381.742462 
	C1471.834961,400.867706 1496.241333,407.007294 1515.346558,396.110840 
	C1540.094604,381.996094 1543.406250,343.634796 1522.103394,323.395020 
z"/>
<path fill="#FFFFFF" opacity="1.000000" stroke="none" 
	d="
M1009.511841,449.511658 
	C991.701355,441.018982 977.498840,428.955383 966.919922,412.671387 
	C953.866028,392.577789 948.816345,370.371368 951.145081,346.824524 
	C954.575195,312.140778 971.475037,285.298737 1002.040405,268.372833 
	C1036.887207,249.076080 1073.840454,247.656174 1110.718384,261.264771 
	C1155.835815,277.913971 1181.226196,320.286102 1176.310547,367.644257 
	C1172.955933,399.962646 1157.300781,425.179688 1130.063232,442.844421 
	C1108.312256,456.950897 1083.994629,461.796173 1058.373169,460.951416 
	C1041.468628,460.394012 1025.227661,456.838867 1009.511841,449.511658 
M1098.771118,383.155640 
	C1107.136841,369.472656 1108.967896,355.129028 1103.496582,339.881714 
	C1096.111694,319.301819 1072.051514,307.293457 1051.437866,314.065948 
	C1026.037109,322.411255 1013.772217,351.921478 1025.233643,376.471283 
	C1032.927734,392.951233 1050.656250,404.335083 1070.001709,401.214386 
	C1081.949829,399.287018 1091.110107,393.169769 1098.771118,383.155640 
z"/>
<path fill="#FFFFFF" opacity="1.000000" stroke="none" 
	d="
M529.258545,389.670959 
	C529.178711,346.251495 529.178711,303.294250 529.178711,260.083618 
	C551.655701,260.083618 573.747864,260.083618 596.511841,260.083618 
	C596.511841,261.874023 596.511841,263.634064 596.511841,265.394135 
	C596.511902,301.056610 596.481262,336.719116 596.526611,372.381531 
	C596.545471,387.207367 602.665588,397.300140 614.186218,401.884125 
	C628.395508,407.537903 645.907532,404.606659 655.006104,394.967407 
	C661.646790,387.932098 662.782532,379.070709 662.800842,369.992004 
	C662.870728,335.329559 662.829041,300.666870 662.829041,266.004272 
	C662.829041,264.180481 662.829041,262.356689 662.829041,260.181183 
	C685.168762,260.181183 707.367920,260.181183 729.680786,260.181183 
	C729.784180,260.636475 729.981140,261.099213 729.981262,261.562042 
	C729.990662,302.890167 730.537415,344.227997 729.813660,385.543518 
	C729.179749,421.726532 712.302429,443.818085 677.286255,453.966888 
	C642.768372,463.971313 607.819641,463.752289 573.884583,451.264557 
	C545.972595,440.993225 531.107483,420.043304 529.258545,389.670959 
z"/>
<path fill="#FFFFFF" opacity="1.000000" stroke="none" 
	d="
M1282.167236,317.000092 
	C1282.167236,341.440033 1282.167236,365.379974 1282.167236,389.793274 
	C1311.589355,389.793274 1340.486206,389.793274 1369.605591,389.793274 
	C1369.605591,411.010498 1369.605591,431.750977 1369.605591,452.745941 
	C1316.866943,452.745941 1264.282471,452.745941 1211.348877,452.745941 
	C1211.348877,358.075134 1211.348877,263.246307 1211.348877,168.208755 
	C1234.788574,168.208755 1258.201782,168.208755 1282.167236,168.208755 
	C1282.167236,217.687744 1282.167236,267.093903 1282.167236,317.000092 
z"/>
<path fill="#FFFFFF" opacity="1.000000" stroke="none" 
	d="
M1979.850830,393.332458 
	C1978.062866,384.603027 1971.339478,381.881226 1964.402588,379.887665 
	C1954.838867,377.139160 1945.049805,375.175476 1935.482178,372.438934 
	C1922.129883,368.619873 1909.837036,362.774750 1902.636841,350.077454 
	C1895.429443,337.367737 1894.970337,323.488495 1897.440796,309.467926 
	C1902.260376,282.115997 1919.960815,266.119995 1945.211060,258.217743 
	C1977.156250,248.220261 2008.583984,252.542068 2039.309570,264.387054 
	C2039.901611,264.615295 2040.387451,265.118713 2041.024414,265.564819 
	C2033.567261,280.197296 2026.133423,294.783936 2018.998535,308.783966 
	C2008.974121,305.927765 1999.582520,302.797913 1989.970459,300.658295 
	C1982.414917,298.976501 1974.686890,299.383026 1967.851807,303.887695 
	C1959.599121,309.326691 1959.785278,318.840363 1968.838013,322.475037 
	C1978.792480,326.471710 1989.321655,329.040497 1999.609863,332.201294 
	C2011.720093,335.921875 2023.409058,340.408630 2032.635864,349.613586 
	C2044.315674,361.265869 2047.442261,375.805573 2046.754272,391.574066 
	C2045.351929,423.720367 2024.410400,445.535797 1994.391602,454.900543 
	C1961.484375,465.166321 1929.768433,460.909119 1898.846924,447.112976 
	C1894.188599,445.034607 1889.730103,442.512634 1885.131592,440.294739 
	C1883.117310,439.323334 1881.717896,438.485535 1883.088135,435.823059 
	C1890.718384,420.996674 1898.227661,406.108093 1905.798828,391.251251 
	C1905.931763,390.990295 1906.319946,390.859406 1906.718018,390.575836 
	C1919.007935,398.686340 1932.051392,405.402649 1946.649170,408.342377 
	C1956.334351,410.292786 1966.103271,411.226990 1974.667603,404.365723 
	C1978.099243,401.616364 1980.341675,398.353455 1979.850830,393.332458 
z"/>
<path fill="#FFFFFF" opacity="1.000000" stroke="none" 
	d="
M880.001343,446.989319 
	C880.001343,451.642670 880.001343,455.798584 880.001343,460.432159 
	C863.111755,460.582367 846.695068,459.178650 830.649353,454.347900 
	C819.904053,451.112976 809.818481,446.560760 801.266418,439.207764 
	C785.617004,425.752594 779.052551,408.145630 778.872009,387.944824 
	C778.685913,367.116882 778.830688,346.285980 778.830688,325.456390 
	C778.830688,323.633728 778.830688,321.811066 778.830688,319.405365 
	C771.731079,319.405365 764.834229,319.405365 757.719238,319.405365 
	C757.719238,299.383240 757.719238,279.946869 757.719238,260.165253 
	C764.618286,260.165253 771.386963,260.165253 778.542969,260.165253 
	C778.542969,240.744461 778.542969,221.659729 778.542969,202.203369 
	C801.128235,202.203369 823.328064,202.203369 846.001343,202.203369 
	C846.001343,203.931625 846.001343,205.717010 846.001343,207.502380 
	C846.001343,261.492706 846.252686,315.484802 845.866272,369.472351 
	C845.729431,388.596008 855.005005,403.333740 877.184631,404.719727 
	C878.011536,404.771423 878.832886,404.912018 880.001343,405.052643 
	C880.001343,418.870514 880.001343,432.681244 880.001343,446.989319 
z"/>
<path fill="#00a9fe" opacity="1.000000" stroke="none" 
	d="
M334.939392,382.003357 
	C344.307739,368.350189 356.982178,362.033997 372.916443,365.280029 
	C388.660309,368.487305 398.648163,378.923828 402.148529,394.563141 
	C405.708984,410.470734 400.625885,423.944672 387.677063,433.825562 
	C372.764740,445.204773 354.309265,443.787994 340.339020,430.835388 
	C327.350128,418.792694 325.023987,398.576324 334.939392,382.003357 
z"/>
<path fill="#00a9fe" opacity="1.000000" stroke="none" 
	d="
M889.918701,336.183685 
	C869.567444,332.007416 856.484009,313.356812 859.096436,292.781311 
	C861.569702,273.301758 879.097900,258.881195 898.988159,259.962067 
	C924.431213,261.344696 941.479431,292.070038 929.538269,315.021210 
	C921.319458,330.817932 906.470215,338.859222 889.918701,336.183685 
z"/>
</svg>