
<svg version="1.1" id="Layer_1" xmlns="http://www.w3.org/2000/svg" xmlns:xlink="http://www.w3.org/1999/xlink" x="0px" y="0px"
	 width="100%" viewBox="0 0 1024 832" enable-background="new 0 0 1024 832" xml:space="preserve">
<path fill="#FFFFFF" opacity="0.000000" stroke="none" 
	d="
M206.768066,150.957779 
	C213.945923,138.665100 224.482681,132.695633 238.244247,132.734055 
	C246.879578,132.758163 255.613739,131.615479 264.143250,133.401596 
	C281.062225,136.944519 292.515839,149.984451 292.807434,167.173660 
	C293.270569,194.476685 293.325439,221.799316 292.846161,249.101257 
	C292.521210,267.611755 276.610321,282.578369 258.053925,282.993958 
	C251.063110,283.150513 244.063232,283.158051 237.072342,283.008026 
	C217.890625,282.596375 202.680344,267.122589 202.648788,248.004440 
	C202.604813,221.359573 202.695877,194.714371 202.595657,168.069809 
	C202.573166,162.088913 203.735886,156.520645 206.768066,150.957779 
M233.290543,207.499954 
	C233.298172,220.145279 233.367126,232.791046 233.280075,245.435715 
	C233.249680,249.849976 235.182129,251.873093 239.578094,251.806870 
	C244.901230,251.726669 250.227066,251.732727 255.550537,251.798553 
	C259.993317,251.853485 261.800720,249.663788 261.790405,245.331314 
	C261.730682,220.207199 261.722046,195.082840 261.770569,169.958710 
	C261.779694,165.233643 259.352722,163.380249 254.956177,163.384384 
	C250.130997,163.388916 245.305038,163.322937 240.480835,163.389664 
	C235.000656,163.465469 233.330673,165.116394 233.309464,170.560669 
	C233.262802,182.540268 233.292542,194.520157 233.290543,207.499954 
z"/>
<path fill="#000000" opacity="1.000000" stroke="none" 
	d="
M341.663879,346.215515 
	C342.958130,326.778412 357.905090,312.641968 376.935638,312.724945 
	C385.901398,312.764038 394.970459,311.570770 403.823608,313.437408 
	C420.728943,317.001770 432.017883,330.866211 432.103577,348.034821 
	C432.235687,374.506073 432.261017,400.979034 432.119263,427.450104 
	C432.014557,447.005371 416.455200,462.715485 396.863617,462.874054 
	C387.091888,462.953186 377.227844,464.138824 367.542511,461.522614 
	C352.439636,457.443024 341.711121,443.753479 341.676758,428.101288 
	C341.617249,400.963531 341.660004,373.825531 341.663879,346.215515 
M400.876373,425.980591 
	C400.888397,400.835693 400.920166,375.690765 400.897247,350.545898 
	C400.892151,344.958435 399.339233,343.438660 393.780518,343.370667 
	C388.785583,343.309570 383.788940,343.396881 378.793762,343.347351 
	C374.395691,343.303741 372.364990,345.588379 372.361328,349.806885 
	C372.339386,375.118347 372.357330,400.429810 372.338318,425.741272 
	C372.335388,429.638367 374.240692,431.659180 378.090027,431.705017 
	C383.750885,431.772461 389.413208,431.710541 395.074860,431.727020 
	C398.389893,431.736694 400.485565,430.350311 400.876373,425.980591 
z"/>
<path fill="#000000" opacity="1.000000" stroke="none" 
	d="
M432.170288,588.000000 
	C431.856293,596.811157 432.960541,605.177002 431.497131,613.436707 
	C428.675812,629.360962 416.268921,641.026489 400.138275,642.388184 
	C389.373260,643.296875 378.495972,644.045227 367.827026,641.391785 
	C352.347168,637.541626 341.692566,623.785095 341.667053,607.733582 
	C341.624451,580.908752 341.606384,554.083679 341.672272,527.258972 
	C341.719208,508.153778 357.242859,492.740906 376.409760,492.683105 
	C384.904541,492.657501 393.496246,491.994049 401.874664,493.012604 
	C419.089813,495.105377 431.917938,510.077515 432.085266,527.519409 
	C432.277008,547.511414 432.155640,567.506348 432.170288,588.000000 
M372.327881,550.500000 
	C372.333466,568.474426 372.320801,586.448853 372.355194,604.423218 
	C372.366241,610.198364 373.718262,611.608643 379.284485,611.689514 
	C384.276337,611.762024 389.273529,611.590698 394.261902,611.741455 
	C398.919464,611.882263 400.945312,609.766724 400.936920,605.169739 
	C400.891205,580.039001 400.900482,554.908081 400.925476,529.777222 
	C400.929810,525.424011 398.846405,523.336609 394.522858,523.354370 
	C389.363647,523.375549 384.202820,523.429443 379.045380,523.330200 
	C374.399384,523.240845 372.347321,525.554626 372.347168,530.027771 
	C372.347015,536.518494 372.334808,543.009277 372.327881,550.500000 
z"/>
<path fill="#000000" opacity="1.000000" stroke="none" 
	d="
M654.168091,132.684097 
	C661.475220,132.679123 668.303772,132.634415 675.131592,132.683823 
	C694.746582,132.825775 710.274048,148.363846 710.317078,167.987137 
	C710.374756,194.300583 710.365051,220.614288 710.333740,246.927811 
	C710.313416,263.954926 700.150757,277.881287 683.556396,281.553711 
	C670.862427,284.362915 657.683167,284.603851 644.978760,281.224579 
	C629.990723,277.237885 619.830627,263.370911 619.766907,247.771622 
	C619.657959,221.125412 619.627014,194.477844 619.774963,167.832016 
	C619.880798,148.772858 634.673279,133.621262 654.168091,132.684097 
M650.903198,248.302887 
	C651.969116,251.062714 654.178894,251.826370 656.893555,251.810730 
	C662.384155,251.779114 667.875366,251.757339 673.365784,251.799927 
	C677.458862,251.831680 679.622375,249.884674 679.625916,245.786179 
	C679.647766,220.495209 679.638000,195.204193 679.634583,169.913193 
	C679.634033,165.614471 677.405762,163.454178 673.171265,163.406128 
	C667.847473,163.345673 662.521729,163.435852 657.198425,163.355637 
	C652.521729,163.285172 650.455444,165.861267 650.456665,170.157898 
	C650.463806,195.943298 650.565063,221.728668 650.903198,248.302887 
z"/>
<path fill="#000000" opacity="1.000000" stroke="none" 
	d="
M542.010010,462.337585 
	C529.645508,462.952576 517.605469,464.602234 505.858582,461.250610 
	C490.891388,456.980255 480.721344,443.236694 480.689301,427.727570 
	C480.634277,401.072571 480.618347,374.417175 480.688965,347.762268 
	C480.740936,328.156799 496.352234,312.743622 516.063232,312.675232 
	C522.893555,312.651520 529.724365,312.625610 536.554260,312.685760 
	C555.457031,312.852295 571.190491,328.529877 571.276001,347.512482 
	C571.391479,373.167542 571.322449,398.823486 571.315491,424.479034 
	C571.310120,444.461578 561.663635,457.061737 542.010010,462.337585 
M540.618347,354.680328 
	C540.618469,353.847382 540.626343,353.014374 540.617554,352.181519 
	C540.540710,344.922821 539.008911,343.380951 531.834351,343.365936 
	C527.169983,343.356171 522.505676,343.357147 517.841309,343.366699 
	C513.526123,343.375549 511.378815,345.617645 511.375427,349.865662 
	C511.355194,375.186523 511.354431,400.507355 511.370941,425.828217 
	C511.373444,429.692352 513.427979,431.670807 517.261536,431.709778 
	C522.258545,431.760620 527.256592,431.760284 532.253845,431.727875 
	C539.181641,431.682922 540.614502,430.217926 540.619019,423.105438 
	C540.633240,400.616486 540.620789,378.127502 540.618347,354.680328 
z"/>
<path fill="#000000" opacity="1.000000" stroke="none" 
	d="
M710.337646,550.000122 
	C710.337402,569.499084 710.384583,588.498230 710.322754,607.496948 
	C710.263062,625.853455 696.798218,640.798096 678.444885,642.368835 
	C667.680908,643.289978 656.806519,644.053589 646.125793,641.406494 
	C631.094788,637.681335 619.869080,623.739258 619.779541,608.251709 
	C619.622620,581.087524 619.576477,553.920410 619.797974,526.757141 
	C619.948730,508.265778 635.780273,492.663849 654.185974,492.742188 
	C663.816101,492.783173 673.554932,491.425995 683.073608,493.622894 
	C699.406250,497.392487 710.251892,511.254700 710.325439,528.001038 
	C710.356873,535.167236 710.335022,542.333740 710.337646,550.000122 
M671.215576,611.713257 
	C677.843872,611.600525 679.577148,610.457703 679.595337,605.282715 
	C679.683716,580.127686 679.637207,554.972229 679.632996,529.816895 
	C679.632263,525.492004 677.371338,523.393127 673.124878,523.369446 
	C667.794128,523.339661 662.462585,523.407104 657.132385,523.343018 
	C652.473083,523.287109 650.433777,525.779968 650.429016,530.154663 
	C650.402039,555.143372 650.415771,580.132080 650.425476,605.120789 
	C650.427246,609.676758 652.760681,611.788391 657.290955,611.714783 
	C661.621094,611.644470 665.953491,611.707825 671.215576,611.713257 
z"/>
<path fill="#000000" opacity="1.000000" stroke="none" 
	d="
M255.018219,314.615723 
	C261.014008,318.285736 263.222687,323.497345 263.217163,329.974060 
	C263.190033,361.797272 263.340698,393.621368 263.125153,425.443085 
	C263.090240,430.596954 264.676514,432.413391 269.661743,431.796204 
	C271.958679,431.511810 274.322327,431.701660 276.653198,431.766846 
	C285.939392,432.026550 292.783539,438.647675 292.833710,447.378754 
	C292.883759,456.088409 286.092865,462.816040 276.620728,462.916534 
	C260.627502,463.086365 244.631332,462.980957 228.636398,462.980621 
	C224.804550,462.980560 220.960785,463.123901 217.143250,462.878479 
	C208.215775,462.304443 202.364685,455.581390 202.637360,446.461731 
	C202.883316,438.235443 209.320587,432.005493 217.885269,431.757629 
	C220.382462,431.685364 222.883423,431.749817 225.382568,431.737030 
	C231.856918,431.703918 231.897003,431.700745 231.904999,424.988922 
	C231.934967,399.830200 231.832367,374.670593 232.040253,349.513489 
	C232.079697,344.742371 230.670120,342.784454 225.809021,343.296661 
	C222.843719,343.609100 219.812714,343.442963 216.819016,343.312531 
	C208.989685,342.971344 202.817474,336.546112 202.645981,328.673615 
	C202.462036,320.229858 208.015640,313.131012 215.992142,312.822144 
	C226.971909,312.397034 237.981476,312.630066 248.975327,312.787750 
	C250.880173,312.815063 252.770355,313.864929 255.018219,314.615723 
z"/>
<path fill="#000000" opacity="1.000000" stroke="none" 
	d="
M263.198914,541.000000 
	C263.203766,562.649780 263.202820,583.799622 263.216797,604.949402 
	C263.221252,611.693115 263.239380,611.694031 270.166199,611.712341 
	C272.664185,611.718994 275.165466,611.638184 277.659546,611.739014 
	C285.479675,612.054932 291.896637,618.036865 292.809967,625.782227 
	C293.643250,632.848755 288.802490,639.958374 281.564575,642.080444 
	C279.829193,642.589355 277.961304,642.867798 276.153229,642.873291 
	C257.002106,642.931396 237.849609,643.038757 218.700027,642.859375 
	C209.869659,642.776733 203.493134,637.121216 202.682938,629.400879 
	C201.806381,621.048218 206.542877,613.712341 214.457047,612.152710 
	C218.316910,611.392029 222.423431,611.576111 226.395645,611.778198 
	C230.401291,611.981934 232.019623,610.706238 231.998337,606.463318 
	C231.868073,580.484741 231.900452,554.504944 232.011490,528.526062 
	C232.027740,524.723389 230.857590,522.974182 226.841553,523.298767 
	C223.698746,523.552795 220.514969,523.412231 217.353989,523.307922 
	C208.950790,523.030579 202.678085,516.548828 202.630493,508.182312 
	C202.580505,499.396484 208.712143,492.835388 217.413818,492.708069 
	C227.403748,492.561890 237.398361,492.583130 247.389160,492.693542 
	C256.604797,492.795410 263.051483,499.223724 263.175049,508.525879 
	C263.316620,519.182129 263.202087,529.841797 263.198914,541.000000 
z"/>
<path fill="#000000" opacity="1.000000" stroke="none" 
	d="
M533.787842,134.875473 
	C539.460083,138.649490 541.400208,143.762314 541.384338,150.050095 
	C541.303955,181.860901 541.462891,213.672852 541.233398,245.482193 
	C541.196472,250.603897 542.700928,252.476181 547.725464,251.860779 
	C550.186340,251.559402 552.717285,251.754898 555.213379,251.829788 
	C564.409485,252.105682 571.343628,258.900269 571.299622,267.541992 
	C571.257324,275.844849 564.412598,282.781158 555.437866,282.929993 
	C540.785278,283.172943 526.126343,283.034821 511.470093,283.048615 
	C506.473633,283.053314 501.473999,283.141968 496.481445,282.997101 
	C487.619232,282.740021 480.767242,275.968475 480.692047,267.565918 
	C480.613617,258.800903 487.348145,252.100876 496.623352,251.801071 
	C499.784576,251.698914 502.955078,251.684464 506.115082,251.800186 
	C509.186584,251.912643 510.689941,250.860580 510.680725,247.512390 
	C510.607330,220.864655 510.619110,194.216599 510.667114,167.568741 
	C510.672485,164.596802 509.447479,163.307266 506.499115,163.363022 
	C502.836700,163.432281 499.168304,163.448624 495.508209,163.322510 
	C487.401001,163.043152 480.989014,156.638062 480.702026,148.652649 
	C480.414948,140.663483 486.307922,133.248856 494.333710,132.891876 
	C505.468719,132.396606 516.643921,132.684082 527.798340,132.861206 
	C529.690979,132.891266 531.565674,134.049744 533.787842,134.875473 
z"/>
<path fill="#000000" opacity="1.000000" stroke="none" 
	d="
M382.896301,132.671326 
	C396.573608,132.738312 402.286133,138.399963 402.290314,151.449112 
	C402.300385,182.921188 402.378296,214.393677 402.215302,245.864883 
	C402.192108,250.345337 403.334320,252.360260 408.061676,251.870483 
	C411.025330,251.563431 414.061035,251.679276 417.044556,251.888443 
	C425.586060,252.487289 432.205994,259.457092 432.134949,267.604401 
	C432.065399,275.579956 425.642334,282.718536 417.210388,282.855103 
	C396.900940,283.184113 376.580444,283.160797 356.269348,282.896973 
	C347.900818,282.788300 341.690613,275.745270 341.663910,267.488007 
	C341.636230,258.932281 347.879211,252.299362 356.556915,251.832550 
	C359.877930,251.653915 363.232269,251.579453 366.541870,251.836914 
	C370.506714,252.145386 371.739990,250.568436 371.701965,246.672760 
	C371.537750,229.855927 371.626770,213.036621 371.620178,196.218216 
	C371.616516,186.893173 371.497070,177.566299 371.652740,168.243973 
	C371.714447,164.547119 370.313232,163.117279 366.654999,163.335037 
	C363.337036,163.532547 359.994904,163.430527 356.667023,163.335083 
	C348.173279,163.091461 341.798553,156.722656 341.668365,148.432602 
	C341.534027,139.874176 347.787415,133.014221 356.437714,132.756714 
	C365.089325,132.499207 373.753998,132.681686 382.896301,132.671326 
z"/>
<path fill="#000000" opacity="1.000000" stroke="none" 
	d="
M565.252991,639.417908 
	C562.535217,641.181946 559.961975,642.538940 557.085449,642.606079 
	C536.273376,643.091919 515.434692,643.606201 494.655396,642.448120 
	C484.024628,641.855530 477.963104,631.177185 481.784882,621.674255 
	C484.249451,615.546021 489.010315,612.222229 495.575897,611.775330 
	C499.224457,611.527039 502.904633,611.623169 506.566193,611.723572 
	C509.579926,611.806213 510.677551,610.457947 510.671661,607.512146 
	C510.618225,580.859436 510.620483,554.206543 510.665527,527.553833 
	C510.670471,524.612854 509.524078,523.264282 506.527039,523.338257 
	C502.864899,523.428711 499.195190,523.426208 495.534149,523.303284 
	C487.230865,523.024414 480.776978,516.380188 480.698303,508.144104 
	C480.617279,499.663879 487.142120,492.834839 495.728333,492.707153 
	C505.054840,492.568420 514.384888,492.652771 523.713379,492.665955 
	C535.604370,492.682739 541.335449,498.482880 541.341187,510.546448 
	C541.356079,541.696960 541.347412,572.847534 541.349426,603.998047 
	C541.349976,611.709290 541.352234,611.709412 549.297852,611.714783 
	C550.963684,611.715942 552.629456,611.717529 554.295288,611.715942 
	C561.656494,611.708862 567.276001,614.697266 570.128601,621.648865 
	C572.938965,628.497314 570.890015,634.335388 565.252991,639.417908 
z"/>
<path fill="#000000" opacity="1.000000" stroke="none" 
	d="
M709.853577,451.222748 
	C706.932373,459.299438 701.328064,462.923065 693.281738,462.933868 
	C674.456909,462.959137 655.631714,463.027863 636.807495,462.923492 
	C626.812805,462.868073 619.678833,456.106812 619.747986,447.138824 
	C619.816711,438.223511 627.057251,431.829254 637.168457,431.754456 
	C649.650024,431.662140 649.655273,431.662109 649.656860,419.087463 
	C649.659912,395.764648 649.530273,372.440552 649.760620,349.120026 
	C649.807190,344.404449 648.298218,342.847839 643.773560,343.302826 
	C640.805847,343.601257 637.780090,343.412079 634.783936,343.321899 
	C626.415955,343.070068 619.923889,336.553375 619.750793,328.303741 
	C619.581726,320.243164 626.033936,312.997559 634.248840,312.769501 
	C644.902283,312.473785 655.575989,312.481903 666.229980,312.768280 
	C674.459839,312.989502 680.301575,319.725739 680.314941,328.517426 
	C680.363525,360.502960 680.342224,392.488556 680.349976,424.474152 
	C680.351746,431.755737 680.356812,431.756104 687.744995,431.759155 
	C689.577515,431.759918 691.410217,431.740356 693.242554,431.758881 
	C704.823792,431.876099 711.194092,439.133179 709.853577,451.222748 
z"/>
</svg>